<?xml version="1.0" encoding="UTF-8" standalone="no"?>
<svg
   version="1.1"
   id="Layer_1"
   x="0px"
   y="0px"
   viewBox="0 0 100 100"
   style="enable-background:new 0 0 100 100;"
   xml:space="preserve"
   sodipodi:docname="output.svg"
   inkscape:version="1.3.2 (091e20e, 2023-11-25)"
   xmlns:inkscape="http://www.inkscape.org/namespaces/inkscape"
   xmlns:sodipodi="http://sodipodi.sourceforge.net/DTD/sodipodi-0.dtd"
   xmlns="http://www.w3.org/2000/svg"
   xmlns:svg="http://www.w3.org/2000/svg"><defs
   id="defs2" /><sodipodi:namedview
   id="namedview2"
   pagecolor="#ffffff"
   bordercolor="#000000"
   borderopacity="0.25"
   inkscape:showpageshadow="2"
   inkscape:pageopacity="0.0"
   inkscape:pagecheckerboard="0"
   inkscape:deskcolor="#d1d1d1"
   inkscape:zoom="2.36"
   inkscape:cx="49.788136"
   inkscape:cy="50.211864"
   inkscape:window-width="1920"
   inkscape:window-height="862"
   inkscape:window-x="0"
   inkscape:window-y="25"
   inkscape:window-maximized="0"
   inkscape:current-layer="Layer_1" />
<style
   type="text/css"
   id="style1">
	.st0{fill:#736357;}
</style>
<ellipse
   cx="48.2"
   cy="32.3"
   rx="16.2"
   ry="3.3"
   id="ellipse1" />
<circle
   cx="61.1"
   cy="25.2"
   r="2.1"
   id="circle1"
   style="fill:#aa0000" />
<circle
   cx="35.3"
   cy="25.2"
   r="2.1"
   id="circle2" />
<g
   id="g2"
   transform="translate(-0.42372864,0.42372884)">
	<path
   class="st0"
   d="M 88.2,63.2 C 87.5,61.4 87.1,50.6 87.1,50.6 l 0.8,0.2 c 0,0 -3.3,-13.3 -5.8,-16.1 l 0.7,-0.6 c 0,0 -6.3,-9.4 -13.4,-11 -0.9,-1.6 -2,-3.2 -2,-3.2 L 68.6,20 C 66.7,17.7 62,14.1 62,14.1 l 2.5,0.1 C 61.2,11.8 57.3,11 57.3,11 56.5,9.3 54.3,8.2 54.3,8.2 54.3,9.7 53,9.9 53,9.9 50.3,9.5 52.4,7 52.4,7 49.5,6.8 46.9,9.3 46.9,9.3 45.5,8.6 46.9,7 46.9,7 44.2,7.2 42.3,10.2 42.3,10.2 40.8,10.2 40,7.9 40,7.9 c -1.3,1.3 -0.7,2.9 -0.7,2.9 -4.4,1.5 -7.8,3.9 -7.8,3.9 H 33 c -2,1.3 -4.7,6.1 -6,8.5 -7.1,1.5 -13.4,11 -13.4,11 l 0.7,0.6 C 11.7,37.7 8.5,50.9 8.5,50.9 l 0.8,-0.2 c 0,0 -0.4,10.7 -1.1,12.6 0,0 0.5,-0.1 1,-0.8 0,0 -0.9,5.5 -0.6,7.2 0.3,1.7 0.7,3.9 2.2,4 0,0 0.4,1.4 2.7,0.7 0,0 0.7,1.4 2.5,1 1.2,-0.2 2.6,-1.4 3.3,-2.8 1.8,1.2 3,-2.2 3,-2.2 0.5,-2.9 0.1,-4.9 -0.3,-5.4 -0.4,-0.5 -2.1,-4.1 -2.1,-4.1 l 1.5,0.6 c -2,-3.7 -0.2,-13.6 -0.2,-13.6 l 0.7,1.4 c 0.1,-3.5 2.6,-8.2 2.6,-8.2 -0.4,2.7 -0.7,5.6 -0.6,8.5 0.2,9.2 2.1,16 1.6,19 L 27,66 c 0,0 0.2,6.3 1.1,8.2 0.9,1.9 0.6,5.4 0.4,6.3 L 30,78 c 0,0 0.6,6.1 1,7.8 0.4,1.7 2.7,2.2 5.6,2 2.9,-0.2 4.5,0.6 5.2,-1.9 0.7,-2.5 -1.2,-3.3 1.6,-9.3 0,0 1.5,0.2 3.5,0.4 v 0.1 c 0.4,0 0.9,0 1.3,0 0.4,0 0.9,0 1.3,0 V 77 c 2.1,-0.1 3.5,-0.4 3.5,-0.4 2.9,6 1,6.8 1.6,9.3 0.6,2.5 2.3,1.7 5.2,1.9 2.9,0.2 5.2,-0.2 5.6,-2 0.4,-1.8 1,-7.8 1,-7.8 l 1.5,2.5 c -0.2,-0.9 -0.5,-4.4 0.4,-6.3 0.9,-1.9 1.1,-8.2 1.1,-8.2 l 1.6,2.5 c -0.6,-3 1.3,-9.8 1.6,-19 0.1,-2.9 -0.2,-5.8 -0.6,-8.5 0,0 2.6,4.8 2.6,8.2 l 0.7,-1.4 c 0,0 1.9,9.9 -0.2,13.6 l 1.5,-0.6 c 0,0 -1.7,3.6 -2.1,4.1 -0.4,0.5 -0.7,2.6 -0.3,5.4 0,0 1.2,3.3 3,2.2 0.7,1.4 2.1,2.6 3.3,2.8 1.8,0.3 2.5,-1 2.5,-1 2.3,0.7 2.7,-0.7 2.7,-0.7 1.5,-0.1 1.9,-2.3 2.2,-4 0.3,-1.7 -0.6,-7.2 -0.6,-7.2 0.5,0.6 0.9,0.8 0.9,0.8 z m -69.1,6.3 c -0.8,-1.2 -2.3,0.9 -2.3,0.9 0,0 -0.1,-2.9 1.3,-3.5 0,0 1.2,-0.3 1.4,1.4 0,0.5 -0.2,0.9 -0.4,1.2 z M 33.9,25.2 c 0,-0.8 0.6,-1.4 1.4,-1.4 0.8,0 1.4,0.6 1.4,1.4 0,0.8 -0.6,1.4 -1.4,1.4 -0.8,0 -1.4,-0.6 -1.4,-1.4 z M 61.8,32 c -0.2,0.1 -4.3,2.7 -13.6,2.7 -9.3,0 -13.4,-2.6 -13.6,-2.7 -0.2,-0.2 -0.3,-0.5 -0.1,-0.7 0.2,-0.2 0.5,-0.3 0.7,-0.1 0,0 4,2.6 13,2.6 9,0 13,-2.5 13,-2.6 0.2,-0.2 0.5,-0.1 0.7,0.1 0.2,0.2 0.1,0.5 -0.1,0.7 z m -0.7,-5.4 c -0.8,0 -1.4,-0.6 -1.4,-1.4 0,-0.8 0.6,-1.4 1.4,-1.4 0.8,0 1.4,0.6 1.4,1.4 0,0.8 -0.7,1.4 -1.4,1.4 z m 18.4,43.8 c 0,0 -1.5,-2.1 -2.3,-0.9 -0.2,-0.3 -0.4,-0.7 -0.4,-1.2 0.2,-1.7 1.4,-1.4 1.4,-1.4 1.5,0.6 1.3,3.5 1.3,3.5 z"
   id="unknown" />
</g>
</svg>
